<svg width="55" height="55" viewBox="0 0 55 55" fill="none" xmlns="http://www.w3.org/2000/svg">
<rect width="55" height="55" rx="27.5" fill="#F4F4F4"/>
<path d="M30.6156 5.11426C31.3043 5.35533 32.0358 5.33505 32.7459 5.45439C36.8037 6.13943 40.563 7.61691 44.1147 9.66009C44.3784 9.81166 44.4262 9.93219 44.2794 10.2067C42.932 12.7189 41.5918 15.2347 40.267 17.7588C40.094 18.0894 39.9746 17.9856 39.7503 17.8364C36.8609 15.9018 33.7079 14.6021 30.2624 14.0997C28.7073 13.8729 27.1308 13.8908 25.6032 14.3837C24.3095 14.8003 23.4359 15.6082 23.2425 17.0045C23.0456 18.4295 23.5898 19.512 24.8036 20.2817C25.9218 20.9907 27.1582 21.4096 28.4173 21.77C31.5406 22.6627 34.708 23.4074 37.731 24.6259C39.1917 25.2143 40.5737 25.9363 41.8078 26.9233C44.5909 29.1502 45.6745 32.141 45.7473 35.5984C45.7545 35.9409 45.5504 36.0448 45.3225 36.1569C44.0216 36.799 42.6312 36.9673 41.2063 36.8623C38.6917 36.6761 36.3561 35.8622 34.147 34.6998C29.1883 32.0885 25.0411 28.4592 21.2734 24.3633C18.5965 21.4537 16.1535 18.3567 13.8465 15.1487C13.6234 14.8384 13.5816 14.5878 13.7212 14.2346C15.4255 9.91429 18.6573 7.309 23.0122 5.96399C24.2283 5.58806 25.4767 5.36369 26.7429 5.23599C26.8503 5.22525 26.99 5.27418 27.0389 5.11426L30.6156 5.11426Z" fill="#1E741C"/>
<path d="M28.6767 39.9697C26.7088 38.9099 24.7276 37.874 22.848 36.6579C17.8403 33.4165 13.2455 29.6941 9.32385 25.1781C9.29759 25.1483 9.26298 25.1256 9.23792 25.0958C8.71281 24.4887 8.13995 24.4505 7.51936 24.9812C7.21861 25.2378 6.91667 25.4908 6.54432 25.8047C6.02636 22.5191 5.52034 19.3064 5 16.0029C8.10534 17.1439 11.1474 18.2621 14.242 19.3995C13.7635 19.773 13.3529 20.1131 12.9221 20.4246C12.5557 20.6896 12.5259 20.9247 12.823 21.2923C13.878 22.6003 15.0488 23.7997 16.216 25.0051C17.9095 26.7547 19.7343 28.3682 21.639 29.8672C25.5153 32.92 29.6208 35.6303 34.317 37.3071C37.2755 38.3645 40.3116 38.9875 43.4767 38.7977C44.2345 38.7523 44.9708 38.5924 45.6738 38.306C47.5391 37.547 48.4318 35.8284 48.1012 33.71C47.9724 32.8806 47.6788 32.1084 47.3983 31.3267L47.4377 31.2838C50.1086 33.4475 51.0276 36.9562 48.5607 39.8706C47.3303 41.3242 45.7155 42.162 43.9457 42.7528C43.8812 42.748 43.8335 42.7611 43.8466 42.8423L43.8514 42.8375C42.9456 42.9198 42.0672 43.1764 41.1518 43.2063C38.8664 43.2803 36.6597 42.8554 34.4805 42.2253C32.4791 41.6453 30.5779 40.8075 28.6779 39.9673L28.6767 39.9697Z" fill="#1E741C"/>
<path d="M28.6769 39.9699C30.5768 40.8101 32.478 41.6491 34.4794 42.2279C36.6574 42.8593 38.8653 43.2829 41.1507 43.209C42.0661 43.1791 42.9457 42.9225 43.8503 42.8402C43.1736 44.1148 42.1353 45.0564 40.9944 45.8954C38.6767 47.5996 36.0142 48.4374 33.2048 48.7656C25.6097 49.6524 18.5374 47.9935 11.9304 44.2246C11.0724 43.7353 11.0843 43.7114 11.5414 42.8068C12.7563 40.4008 13.9891 38.0031 15.1742 35.584C15.4153 35.0911 15.5597 35.1353 15.9571 35.4158C19.1663 37.6893 22.7705 39.0164 26.6122 39.7468C27.2925 39.8757 27.9775 39.9998 28.6769 39.9711V39.9699Z" fill="#F5C61F"/>
<path d="M47.3981 31.3307C47.3444 31.3128 47.2919 31.2722 47.3432 31.2256C47.3957 31.1779 47.4291 31.2304 47.4375 31.2889L47.3981 31.3318V31.3307Z" fill="#1E741C"/>
<path d="M43.8469 42.8462C43.8338 42.7651 43.8815 42.7519 43.946 42.7567C43.9125 42.7866 43.8803 42.8164 43.8469 42.8462Z" fill="#F5C61F"/>
</svg>
